<svg width="15" height="15" viewBox="0 0 15 15" fill="none" xmlns="http://www.w3.org/2000/svg"><g opacity="0.12"><path d="M5.88242 1.89575H3.66576C3.33906 1.89575 3.17571 1.89575 3.05093 1.95933C2.94117 2.01526 2.85193 2.1045 2.796 2.21426C2.73242 2.33904 2.73242 2.50239 2.73242 2.82909V5.04575C2.73242 5.37245 2.73242 5.5358 2.796 5.66058C2.85193 5.77034 2.94117 5.85958 3.05093 5.91551C3.17571 5.97908 3.33906 5.97908 3.66576 5.97908H5.88242C6.20912 5.97908 6.37247 5.97908 6.49725 5.91551C6.60701 5.85958 6.69625 5.77034 6.75218 5.66058C6.81575 5.5358 6.81575 5.37245 6.81575 5.04575V2.82909C6.81575 2.50239 6.81575 2.33904 6.75218 2.21426C6.69625 2.1045 6.60701 2.01526 6.49725 1.95933C6.37247 1.89575 6.20912 1.89575 5.88242 1.89575Z" fill="#FB6A53"></path><path d="M12.2991 1.89575H10.0824C9.75572 1.89575 9.59237 1.89575 9.46759 1.95933C9.35783 2.01526 9.26859 2.1045 9.21267 2.21426C9.14909 2.33904 9.14909 2.50239 9.14909 2.82909V5.04575C9.14909 5.37245 9.14909 5.5358 9.21267 5.66058C9.26859 5.77034 9.35783 5.85958 9.46759 5.91551C9.59237 5.97908 9.75572 5.97908 10.0824 5.97908H12.2991C12.6258 5.97908 12.7891 5.97908 12.9139 5.91551C13.0237 5.85958 13.1129 5.77034 13.1688 5.66058C13.2324 5.5358 13.2324 5.37245 13.2324 5.04575V2.82909C13.2324 2.50239 13.2324 2.33904 13.1688 2.21426C13.1129 2.1045 13.0237 2.01526 12.9139 1.95933C12.7891 1.89575 12.6258 1.89575 12.2991 1.89575Z" fill="#FB6A53"></path><path d="M12.2991 8.31242H10.0824C9.75572 8.31242 9.59237 8.31242 9.46759 8.376C9.35783 8.43192 9.26859 8.52116 9.21267 8.63092C9.14909 8.7557 9.14909 8.91905 9.14909 9.24575V11.4624C9.14909 11.7891 9.14909 11.9525 9.21267 12.0772C9.26859 12.187 9.35783 12.2762 9.46759 12.3322C9.59237 12.3958 9.75572 12.3958 10.0824 12.3958H12.2991C12.6258 12.3958 12.7891 12.3958 12.9139 12.3322C13.0237 12.2762 13.1129 12.187 13.1688 12.0772C13.2324 11.9525 13.2324 11.7891 13.2324 11.4624V9.24575C13.2324 8.91905 13.2324 8.7557 13.1688 8.63092C13.1129 8.52116 13.0237 8.43192 12.9139 8.376C12.7891 8.31242 12.6258 8.31242 12.2991 8.31242Z" fill="#FB6A53"></path><path d="M5.88242 8.31242H3.66576C3.33906 8.31242 3.17571 8.31242 3.05093 8.376C2.94117 8.43192 2.85193 8.52116 2.796 8.63092C2.73242 8.7557 2.73242 8.91905 2.73242 9.24575V11.4624C2.73242 11.7891 2.73242 11.9525 2.796 12.0772C2.85193 12.187 2.94117 12.2762 3.05093 12.3322C3.17571 12.3958 3.33906 12.3958 3.66576 12.3958H5.88242C6.20912 12.3958 6.37247 12.3958 6.49725 12.3322C6.60701 12.2762 6.69625 12.187 6.75218 12.0772C6.81575 11.9525 6.81575 11.7891 6.81575 11.4624V9.24575C6.81575 8.91905 6.81575 8.7557 6.75218 8.63092C6.69625 8.52116 6.60701 8.43192 6.49725 8.376C6.37247 8.31242 6.20912 8.31242 5.88242 8.31242Z" fill="#FB6A53"></path></g><path d="M5.88242 1.89575H3.66576C3.33906 1.89575 3.17571 1.89575 3.05093 1.95933C2.94117 2.01526 2.85193 2.1045 2.796 2.21426C2.73242 2.33904 2.73242 2.50239 2.73242 2.82909V5.04575C2.73242 5.37245 2.73242 5.5358 2.796 5.66058C2.85193 5.77034 2.94117 5.85958 3.05093 5.91551C3.17571 5.97908 3.33906 5.97908 3.66576 5.97908H5.88242C6.20912 5.97908 6.37247 5.97908 6.49725 5.91551C6.60701 5.85958 6.69625 5.77034 6.75218 5.66058C6.81575 5.5358 6.81575 5.37245 6.81575 5.04575V2.82909C6.81575 2.50239 6.81575 2.33904 6.75218 2.21426C6.69625 2.1045 6.60701 2.01526 6.49725 1.95933C6.37247 1.89575 6.20912 1.89575 5.88242 1.89575Z" stroke="#FB6A53" stroke-width="1.01111" stroke-linecap="round" stroke-linejoin="round"></path><path d="M12.2991 1.89575H10.0824C9.75572 1.89575 9.59237 1.89575 9.46759 1.95933C9.35783 2.01526 9.26859 2.1045 9.21267 2.21426C9.14909 2.33904 9.14909 2.50239 9.14909 2.82909V5.04575C9.14909 5.37245 9.14909 5.5358 9.21267 5.66058C9.26859 5.77034 9.35783 5.85958 9.46759 5.91551C9.59237 5.97908 9.75572 5.97908 10.0824 5.97908H12.2991C12.6258 5.97908 12.7891 5.97908 12.9139 5.91551C13.0237 5.85958 13.1129 5.77034 13.1688 5.66058C13.2324 5.5358 13.2324 5.37245 13.2324 5.04575V2.82909C13.2324 2.50239 13.2324 2.33904 13.1688 2.21426C13.1129 2.1045 13.0237 2.01526 12.9139 1.95933C12.7891 1.89575 12.6258 1.89575 12.2991 1.89575Z" stroke="#FB6A53" stroke-width="1.01111" stroke-linecap="round" stroke-linejoin="round"></path><path d="M12.2991 8.31242H10.0824C9.75572 8.31242 9.59237 8.31242 9.46759 8.376C9.35783 8.43192 9.26859 8.52116 9.21267 8.63092C9.14909 8.7557 9.14909 8.91905 9.14909 9.24575V11.4624C9.14909 11.7891 9.14909 11.9525 9.21267 12.0772C9.26859 12.187 9.35783 12.2762 9.46759 12.3322C9.59237 12.3958 9.75572 12.3958 10.0824 12.3958H12.2991C12.6258 12.3958 12.7891 12.3958 12.9139 12.3322C13.0237 12.2762 13.1129 12.187 13.1688 12.0772C13.2324 11.9525 13.2324 11.7891 13.2324 11.4624V9.24575C13.2324 8.91905 13.2324 8.7557 13.1688 8.63092C13.1129 8.52116 13.0237 8.43192 12.9139 8.376C12.7891 8.31242 12.6258 8.31242 12.2991 8.31242Z" stroke="#FB6A53" stroke-width="1.01111" stroke-linecap="round" stroke-linejoin="round"></path><path d="M5.88242 8.31242H3.66576C3.33906 8.31242 3.17571 8.31242 3.05093 8.376C2.94117 8.43192 2.85193 8.52116 2.796 8.63092C2.73242 8.7557 2.73242 8.91905 2.73242 9.24575V11.4624C2.73242 11.7891 2.73242 11.9525 2.796 12.0772C2.85193 12.187 2.94117 12.2762 3.05093 12.3322C3.17571 12.3958 3.33906 12.3958 3.66576 12.3958H5.88242C6.20912 12.3958 6.37247 12.3958 6.49725 12.3322C6.60701 12.2762 6.69625 12.187 6.75218 12.0772C6.81575 11.9525 6.81575 11.7891 6.81575 11.4624V9.24575C6.81575 8.91905 6.81575 8.7557 6.75218 8.63092C6.69625 8.52116 6.60701 8.43192 6.49725 8.376C6.37247 8.31242 6.20912 8.31242 5.88242 8.31242Z" stroke="#FB6A53" stroke-width="1.01111" stroke-linecap="round" stroke-linejoin="round"></path></svg>