<svg width="15" height="16" viewBox="0 0 15 16" fill="none" xmlns="http://www.w3.org/2000/svg"><path d="M4.6999 1.25H1.8499C1.42986 1.25 1.21984 1.25 1.05941 1.33175C0.918288 1.40365 0.803552 1.51839 0.731647 1.65951C0.649902 1.81994 0.649902 2.02996 0.649902 2.45V5.3C0.649902 5.72004 0.649902 5.93006 0.731647 6.09049C0.803552 6.23161 0.918288 6.34635 1.05941 6.41825C1.21984 6.5 1.42986 6.5 1.8499 6.5H4.6999C5.11994 6.5 5.32996 6.5 5.49039 6.41825C5.63152 6.34635 5.74625 6.23161 5.81816 6.09049C5.8999 5.93006 5.8999 5.72004 5.8999 5.3V2.45C5.8999 2.02996 5.8999 1.81994 5.81816 1.65951C5.74625 1.51839 5.63152 1.40365 5.49039 1.33175C5.32996 1.25 5.11994 1.25 4.6999 1.25Z" stroke="#FB6A53" stroke-width="1.3" stroke-linecap="round" stroke-linejoin="round"></path><path d="M12.9499 1.25H10.0999C9.67986 1.25 9.46984 1.25 9.30941 1.33175C9.16829 1.40365 9.05355 1.51839 8.98165 1.65951C8.8999 1.81994 8.8999 2.02996 8.8999 2.45V5.3C8.8999 5.72004 8.8999 5.93006 8.98165 6.09049C9.05355 6.23161 9.16829 6.34635 9.30941 6.41825C9.46984 6.5 9.67986 6.5 10.0999 6.5H12.9499C13.3699 6.5 13.58 6.5 13.7404 6.41825C13.8815 6.34635 13.9963 6.23161 14.0682 6.09049C14.1499 5.93006 14.1499 5.72004 14.1499 5.3V2.45C14.1499 2.02996 14.1499 1.81994 14.0682 1.65951C13.9963 1.51839 13.8815 1.40365 13.7404 1.33175C13.58 1.25 13.3699 1.25 12.9499 1.25Z" stroke="#FB6A53" stroke-width="1.3" stroke-linecap="round" stroke-linejoin="round"></path><path d="M12.9499 9.5H10.0999C9.67986 9.5 9.46984 9.5 9.30941 9.58174C9.16829 9.65365 9.05355 9.76838 8.98165 9.90951C8.8999 10.0699 8.8999 10.28 8.8999 10.7V13.55C8.8999 13.97 8.8999 14.1801 8.98165 14.3405C9.05355 14.4816 9.16829 14.5963 9.30941 14.6683C9.46984 14.75 9.67986 14.75 10.0999 14.75H12.9499C13.3699 14.75 13.58 14.75 13.7404 14.6683C13.8815 14.5963 13.9963 14.4816 14.0682 14.3405C14.1499 14.1801 14.1499 13.97 14.1499 13.55V10.7C14.1499 10.28 14.1499 10.0699 14.0682 9.90951C13.9963 9.76838 13.8815 9.65365 13.7404 9.58174C13.58 9.5 13.3699 9.5 12.9499 9.5Z" stroke="#FB6A53" stroke-width="1.3" stroke-linecap="round" stroke-linejoin="round"></path><path d="M4.6999 9.5H1.8499C1.42986 9.5 1.21984 9.5 1.05941 9.58174C0.918288 9.65365 0.803552 9.76838 0.731647 9.90951C0.649902 10.0699 0.649902 10.28 0.649902 10.7V13.55C0.649902 13.97 0.649902 14.1801 0.731647 14.3405C0.803552 14.4816 0.918288 14.5963 1.05941 14.6683C1.21984 14.75 1.42986 14.75 1.8499 14.75H4.6999C5.11994 14.75 5.32996 14.75 5.49039 14.6683C5.63152 14.5963 5.74625 14.4816 5.81816 14.3405C5.8999 14.1801 5.8999 13.97 5.8999 13.55V10.7C5.8999 10.28 5.8999 10.0699 5.81816 9.90951C5.74625 9.76838 5.63152 9.65365 5.49039 9.58174C5.32996 9.5 5.11994 9.5 4.6999 9.5Z" stroke="#FB6A53" stroke-width="1.3" stroke-linecap="round" stroke-linejoin="round"></path></svg>