<svg width="19" height="20" viewBox="0 0 19 20" fill="none" xmlns="http://www.w3.org/2000/svg"><g clip-path="url(#clip0_8140_7959)"><path d="M6.54261 4.96804L14.6022 9.66974C14.66 9.70355 14.7079 9.75189 14.7412 9.80995C14.7745 9.86801 14.792 9.93377 14.792 10.0007C14.792 10.0676 14.7745 10.1334 14.7412 10.1914C14.7079 10.2495 14.66 10.2978 14.6022 10.3317L6.54261 15.0334C6.48421 15.0674 6.41785 15.0855 6.35024 15.0856C6.28263 15.0858 6.21618 15.0681 6.15763 15.0343C6.09907 15.0005 6.05049 14.9518 6.0168 14.8932C5.98312 14.8346 5.96553 14.7681 5.96582 14.7005V5.29938C5.9658 5.23191 5.98359 5.16562 6.01738 5.10721C6.05118 5.0488 6.09978 5.00035 6.15829 4.96674C6.2168 4.93312 6.28315 4.91554 6.35062 4.91577C6.4181 4.916 6.48433 4.93403 6.54261 4.96804Z" fill="#E7EFFF"></path></g><defs><clipPath id="clip0_8140_7959"><rect width="18.408" height="18.408" fill="white" transform="translate(0.59668 0.796387)"></rect></clipPath></defs></svg>