<svg width="31" height="31" viewBox="0 0 31 31" fill="none" xmlns="http://www.w3.org/2000/svg"><g clip-path="url(#clip0_8351_577)"><path d="M25.8963 6.05185C23.9513 5.15906 21.8987 4.52241 19.7899 4.15785C19.7707 4.15428 19.7509 4.15684 19.7333 4.16516C19.7157 4.17349 19.7012 4.18716 19.6918 4.20423C19.428 4.67335 19.1359 5.28523 18.9314 5.7661C16.6255 5.42085 14.3314 5.42085 12.0729 5.7661C11.8684 5.27448 11.5656 4.67335 11.3008 4.20423C11.2909 4.18755 11.2763 4.17421 11.2588 4.16596C11.2413 4.15771 11.2217 4.15493 11.2026 4.15798C9.09361 4.52169 7.04087 5.15828 5.09613 6.05173C5.07949 6.05884 5.06547 6.07093 5.05601 6.08635C1.16676 11.8969 0.101255 17.5645 0.624005 23.1619C0.625483 23.1756 0.629696 23.1888 0.636396 23.2009C0.643095 23.2129 0.652143 23.2235 0.663005 23.232C3.229 25.1165 5.71463 26.2605 8.15413 27.0187C8.1731 27.0244 8.19334 27.0241 8.21215 27.018C8.23097 27.0118 8.24744 27 8.25938 26.9842C8.83638 26.1962 9.35075 25.3652 9.79188 24.4915C9.79794 24.4795 9.8014 24.4664 9.80204 24.453C9.80267 24.4396 9.80045 24.4262 9.79554 24.4137C9.79063 24.4013 9.78313 24.39 9.77353 24.3806C9.76394 24.3712 9.75247 24.364 9.73988 24.3594C8.92388 24.0499 8.147 23.6725 7.39963 23.244C7.386 23.236 7.37455 23.2247 7.3663 23.2113C7.35804 23.1978 7.35323 23.1825 7.35229 23.1667C7.35135 23.1509 7.35431 23.1352 7.36091 23.1208C7.36751 23.1064 7.37755 23.0939 7.39013 23.0844C7.54738 22.9665 7.70475 22.844 7.85488 22.7201C7.86822 22.7091 7.88437 22.702 7.90151 22.6997C7.91865 22.6974 7.93609 22.6999 7.95188 22.707C12.8616 24.9486 18.1769 24.9486 23.0286 22.707C23.0444 22.6995 23.062 22.6966 23.0794 22.6987C23.0968 22.7008 23.1132 22.7078 23.1268 22.7189C23.277 22.8426 23.4343 22.9665 23.5928 23.0844C23.6054 23.0938 23.6155 23.1062 23.6222 23.1205C23.6288 23.1348 23.6319 23.1505 23.6311 23.1663C23.6303 23.1821 23.6256 23.1974 23.6175 23.2109C23.6094 23.2244 23.598 23.2357 23.5845 23.2439C22.8369 23.6805 22.0537 24.0533 21.2433 24.3581C21.2307 24.3629 21.2192 24.3703 21.2097 24.3799C21.2002 24.3894 21.1928 24.4008 21.188 24.4134C21.1832 24.426 21.1811 24.4395 21.1819 24.4529C21.1826 24.4664 21.1862 24.4795 21.1924 24.4915C21.6429 25.364 22.1573 26.195 22.7236 26.983C22.7352 26.9992 22.7516 27.0114 22.7705 27.0179C22.7894 27.0243 22.8098 27.0246 22.8289 27.0187C25.2801 26.2604 27.7658 25.1164 30.3318 23.232C30.3428 23.2239 30.352 23.2136 30.3588 23.2017C30.3655 23.1898 30.3696 23.1766 30.3709 23.163C30.9964 16.6917 29.3231 11.0706 25.9353 6.08748C25.9269 6.07129 25.9131 6.05873 25.8963 6.05185ZM10.525 19.7536C9.04688 19.7536 7.82888 18.3965 7.82888 16.7299C7.82888 15.0634 9.02325 13.7062 10.5251 13.7062C12.0386 13.7062 13.2448 15.0752 13.2211 16.73C13.2211 18.3965 12.0268 19.7536 10.525 19.7536ZM20.4935 19.7536C19.0154 19.7536 17.7974 18.3965 17.7974 16.7299C17.7974 15.0634 18.9916 13.7062 20.4935 13.7062C22.007 13.7062 23.2131 15.0752 23.1895 16.73C23.1895 18.3965 22.007 19.7536 20.4935 19.7536Z" fill="white"></path></g><defs><clipPath id="clip0_8351_577"><rect width="30" height="30" fill="white" transform="translate(0.5 0.5896)"></rect></clipPath></defs></svg>